<?xml version="1.0" encoding="utf-8"?>
<!-- Generator: Adobe Illustrator 16.0.0, SVG Export Plug-In . SVG Version: 6.00 Build 0)  -->
<!DOCTYPE svg PUBLIC "-//W3C//DTD SVG 1.1//EN" "http://www.w3.org/Graphics/SVG/1.1/DTD/svg11.dtd">
<svg version="1.1" xmlns="http://www.w3.org/2000/svg" xmlns:xlink="http://www.w3.org/1999/xlink" x="0px" y="0px"
	 width="79.172px" height="139.816px" viewBox="0 0 79.172 139.816" enable-background="new 0 0 79.172 139.816"
	 xml:space="preserve">
<g id="Layer_2">
</g>
<g id="Layer_1">
	<path fill="#010101" d="M68.987,0H10.167C4.541,0,0,4.562,0,10.189v20.13v7.621v63.931v7.621v20.148
		c0,5.608,4.541,10.176,10.171,10.176h58.821c5.626,0,10.18-4.562,10.18-10.176v-20.148v-7.621V37.94v-7.621v-20.13
		C79.167,4.562,74.618,0,68.987,0z M62.284,6.372c1.439,0,2.604,1.169,2.604,2.604c0,1.435-1.164,2.604-2.604,2.604
		c-1.438,0-2.604-1.169-2.604-2.604C59.681,7.541,60.847,6.372,62.284,6.372z M52.003,128.96H27.164v-7.643h24.839V128.96z
		 M71.552,30.319v7.621v63.931v7.621v3.791H7.625v-3.791v-7.621V37.94v-7.621V17.188h63.922L71.552,30.319L71.552,30.319z"/>
</g>
</svg>
