<?xml version="1.0" encoding="utf-8"?>
<!-- Generator: Adobe Illustrator 16.0.0, SVG Export Plug-In . SVG Version: 6.00 Build 0)  -->
<!DOCTYPE svg PUBLIC "-//W3C//DTD SVG 1.1//EN" "http://www.w3.org/Graphics/SVG/1.1/DTD/svg11.dtd">
<svg version="1.1" id="Layer_1" xmlns="http://www.w3.org/2000/svg" xmlns:xlink="http://www.w3.org/1999/xlink" x="0px" y="0px"
	 width="160.5px" height="133.2px" viewBox="-12 8.4 160.5 133.2" enable-background="new -12 8.4 160.5 133.2"
	 xml:space="preserve">
<g>
	<path d="M23.056,43.877c9.95-14.328,26.58-23.717,45.419-23.717c27.121,0,49.666,19.47,54.285,45.105h-13.68l19.725,32.024
		L148.5,65.265h-13.74C130.02,33.09,102.15,8.4,68.49,8.4c-23.172,0-43.591,11.692-55.619,29.464"/>
	<path d="M112.919,106.866c-10.004,13.908-26.383,22.975-44.895,22.975c-27.12-0.002-49.665-19.471-54.284-45.105h13.68
		L7.695,52.709L-12,84.734H1.74C6.48,116.909,34.35,141.6,68.01,141.6c22.854,0,43.027-11.372,55.118-28.734"/>
</g>
</svg>
