<?xml version="1.0" encoding="utf-8"?>
<!-- Generator: Adobe Illustrator 16.0.0, SVG Export Plug-In . SVG Version: 6.00 Build 0)  -->
<!DOCTYPE svg PUBLIC "-//W3C//DTD SVG 1.1//EN" "http://www.w3.org/Graphics/SVG/1.1/DTD/svg11.dtd">
<svg version="1.1" id="Layer_1" xmlns:svg="http://www.w3.org/2000/svg"
	 xmlns="http://www.w3.org/2000/svg" xmlns:xlink="http://www.w3.org/1999/xlink" x="0px" y="0px" width="438.511px"
	 height="442.759px" viewBox="-21.392 -61.294 438.511 442.759" enable-background="new -21.392 -61.294 438.511 442.759"
	 xml:space="preserve">
<g transform="translate(-147.06733,-109.44716)">
	<path id="path3166_1_" d="M319.603,172.028c1.668-86.932,2.07-122.701,24.232-123.852c22.305-1.157,22.628,40.669,23.843,122.595
		l181.204,137.29c18.053,11.379,15.129,25.057,15.129,25.057l-1.302,18.943l-147.065-70.162
		c-12.743-6.371-31.197-8.677-43.458,6.048c-6.372,7.888-12.225,38.062-11.77,43.371l-1.604,81.803
		c-0.305,1.82,58.544,45.712,58.544,45.712c1.518,1.519,5.635,32.079,5.635,32.079L349.536,470.3l-11.228-0.391l-74.432,20.722
		l4.79-30.887c10.468-6.523,60.018-46.06,60.474-47.425c0,0,0.3-72.245,0.195-76.492c-0.607-24.577-1.279-33.315-5.679-41.355
		c-4.404-8.048-16.63-14.067-46.992-6.807c-41.873,10.013-150.426,64.028-150.426,64.028l-0.563-22.325
		c0-12.744,12.94-21.263,12.94-21.263"/>
</g>
</svg>
