<?xml version="1.0" encoding="utf-8"?>
<!-- Generator: Adobe Illustrator 16.0.0, SVG Export Plug-In . SVG Version: 6.00 Build 0)  -->
<!DOCTYPE svg PUBLIC "-//W3C//DTD SVG 1.1//EN" "http://www.w3.org/Graphics/SVG/1.1/DTD/svg11.dtd">
<svg version="1.1" id="Layer_1" xmlns="http://www.w3.org/2000/svg" xmlns:xlink="http://www.w3.org/1999/xlink" x="0px" y="0px"
	 width="166.698px" height="168.929px" viewBox="0 0 166.698 168.929" enable-background="new 0 0 166.698 168.929"
	 xml:space="preserve">
<path fill-rule="evenodd" clip-rule="evenodd" d="M86.8,131.201c0,3.309,0,6.617,0,10.379c-0.581-0.277-1.162-0.557-1.051-0.504
	c-2.592,6.828-5.28,13.906-7.969,20.986c-0.474-0.117-0.947-0.236-1.422-0.355c-0.045-1.02,0.167-2.143-0.193-3.035
	c-0.591-1.463-1.217-3.4-2.416-4.047c-6.878-3.711-4.096-8.955-2.531-14.246c-0.737,0-1.433,0-0.975,0c0-5.045,0-10.1-0.002-15.156
	c-0.001-0.43-0.182-0.932-0.018-1.275c0.939-1.963,3.564-3.523,0.553-6.227c-0.506-0.453,1.828-4.223,3.027-6.361
	c0.588-1.049,1.58-1.871,1.9-3.367c-1.402,0.967-2.803,1.934-4.203,2.9c-0.078-0.08-0.154-0.158-0.23-0.238
	c2.154-1.814,4.308-3.631,6.462-5.445c-0.363-0.425-0.728-0.85-1.091-1.273c-0.859,0.266-1.719,0.531-3.596,1.111
	c1.129-2.346,1.954-4.059,2.972-6.17c-8.96,2.328-9.392,11.818-14.95,17.925c-0.5-2.119-0.801-3.389-0.966-4.09
	c-3.026,3.738-6.206,7.666-9.556,11.805c-1.045-0.85-2.008-1.635-3.381-2.75c-0.451,1.947-0.851,3.668-1.24,5.35
	c-3.639-8.508-3.239-12.199,1.808-15.371c-0.589-1.506-1.194-3.055-1.68-4.297c-1.622,1.633-3.36,3.385-5.099,5.137
	c-0.371-0.287-0.742-0.574-1.113-0.861c0.104-1.559,0.207-3.119,0.311-4.678c-0.279-0.09-0.561-0.182-0.841-0.271
	c-0.905,1.879-2.239,3.676-2.634,5.658c-1.018,5.104-4.238,6.834-8.986,6.68c-0.725-0.023-1.443-0.246-2.164-0.377
	c-0.288-0.65-0.576-1.301-0.864-1.951c-1.38,2.191-2.76,4.383-4.14,6.576c-0.469-0.346-0.939-0.691-1.408-1.035
	c4.443-5.248,2.47-13.316,8.998-17.824c2.43-1.676,2.234-7.52,0.397-8.852c0.21-0.198,0.402-0.409,0.624-0.585
	c4.225-3.362,9.602-2.616,14.387-3.993c2.889-0.831,5.923-1.164,8.801-2.025c0.82-0.246,1.323-1.556,2.682-3.277
	c-4.469,0.637-8.353,2.135-8.17-4.412c-2.689,6.586-8.199,2.205-11.848,4.421c-4.113,2.497-8.597,3.317-13.141,0.588
	c0.502-3.227-1.965-1.909-4.133-0.89c-1.921,0.902-3.77,1.957-6.409,2.018c0.839-1.282,1.679-2.564,2.624-4.01
	c-1.09-0.557-2.242-1.146-3.725-1.903c11.012-6.422,23.402-4.136,35.053-7.519c-1.172-1.254-2.374-2.142-2.998-3.332
	c-0.521-0.992-0.365-2.34-0.553-3.902c-1.839,0.992-3.406,1.838-5.566,3.002c0.445-1.096,0.696-1.714,1.033-2.543
	c-4.229,1.465-8.331,2.885-13.246,4.588c1.727-1.821,2.909-3.068,5.053-5.33c-2.33,1.15-3.502,1.73-5.17,2.555
	c0.617-1.844,1.067-3.188,1.663-4.967c-2.478,0.308-4.601,0.571-7.228,0.896c0.629-1.154,1.025-1.882,1.899-3.486
	c-3.165,1.893-5.485,3.28-7.804,4.668c-0.161-0.204-0.322-0.408-0.482-0.611c0.444-0.74,0.889-1.479,1.818-3.029
	c-2.318,1.389-3.926,2.352-6.834,4.094c1.565-2.146,2.311-3.167,3.055-4.188c-0.232-0.416-0.465-0.832-0.696-1.248
	c-2.542,1.445-5.083,2.892-7.624,4.338c-0.146-0.16-0.293-0.32-0.439-0.48c2.553-2.162,5.105-4.323,8.727-7.391
	c-4.02,1.032-6.821,1.752-9.623,2.471c-0.08-0.279-0.16-0.559-0.239-0.838c3.051-1.109,6.101-2.219,9.544-3.471
	c-1.223-0.921-2.186-1.646-4.574-3.445c5.132,1.852,8.783,2.803,6.327-3.929c3.308,1.956,5.968,3.529,9.494,5.615
	c-0.577-2.007-0.893-3.105-1.298-4.515c1.264,0.912,2.328,1.68,3.391,2.447c0.162-0.158,0.324-0.315,0.486-0.473
	c-0.943-1.615-1.888-3.23-3.373-5.773c1.563,1.146,2.26,1.656,3.656,2.679c-0.613-1.749-0.994-2.829-1.736-4.944
	c2.174,2.432,3.709,4.148,5.503,6.155c0.644-1.097,1.083-1.846,1.539-2.624c0.776,1.242,1.544,2.469,2.806,4.482
	c0.468-2.343,0.781-3.914,1.391-6.963c2.325,4.059,3.995,6.973,5.666,9.889c0.275-0.006,0.553-0.013,0.829-0.019
	c-0.312-2.699-0.623-5.397-1.004-8.694c2.292,3.043,4.247,5.637,6.449,8.56c0.354-2.097,0.636-3.772,0.919-5.448
	c0.318-0.051,0.639-0.103,0.958-0.154c0.546,1.57,1.092,3.141,1.764,5.072c0.456-1.162,0.814-2.075,1.362-3.473
	c1.127,3.107,2.084,5.748,3.043,8.389c0.4-0.139,0.801-0.278,1.201-0.418c-0.672-1.9-1.343-3.801-2.164-6.125
	c5.506,0.59,3.42,4.93,4.762,8.09c0.408-1.803,0.699-3.09,1.323-5.846c1.172,2.896,1.856,4.586,2.524,6.236
	c1.98-1.949,1.98-1.949,4.003,3.158c1.123-0.68,2.214-1.339,3.305-1.998c-0.814-0.963-1.687-1.881-2.433-2.894
	c-2.178-2.96-4.316-5.95-6.439-8.951c-0.278-0.394-0.277-0.986-0.559-1.379c-1.839-2.577-11.742-4.243-15.24-1.935
	c0.652-2.826,1.156-5.004,1.672-7.236c-7.314-4.711-15.285-7.284-24.27-5.705c-2.58,0-5.16,0-7.742,0
	c-0.13-0.393-0.26-0.786-0.391-1.18c5.607-1.961,11.217-3.922,17.295-6.047c0.078,0.264-0.168-0.557-0.65-2.17
	c1.489,1.379,2.473,2.29,3.913,3.623c-0.88-3.314-1.632-6.143-2.384-8.971c0.458-0.172,0.916-0.345,1.374-0.518
	c1.406,3.43,2.812,6.861,4.219,10.291c0.171-0.071,0.341-0.143,0.511-0.213c-0.183-2.701-0.365-5.403-0.547-8.104
	c0.462-0.065,0.924-0.13,1.387-0.194c0.269,2.415,0.537,4.831,0.767,6.902c1.403-1.627,2.89-3.351,4.86-5.635
	c0.424,2.495,0.715,4.207,1.095,6.441c0.83-3.303,1.522-6.055,2.214-8.809c0.464,0.018,0.928,0.034,1.393,0.051
	c0.168,1.965,0.336,3.93,0.566,6.627c1.002-2.467,1.769-4.357,2.535-6.248c0.285,0.023,0.571,0.047,0.856,0.069
	c0,2.733,0,5.466,0,8.198c0.253,0.006,0.505,0.012,0.758,0.018c0.517-1.938,1.033-3.875,1.55-5.812
	c0.268,0.05,0.535,0.099,0.803,0.147c0,1.76,0,3.518,0,6.246c1.168-1.67,1.87-2.674,2.59-3.702c1.045,2.219,1.972,4.186,2.932,6.223
	c0.604-0.991,1.234-2.027,1.865-3.064c0.4,0.251,0.802,0.501,1.202,0.752c0,2.481,0,4.962,0,8.188
	c1.624-3.562,2.955-6.481,4.337-9.513c-2.074-2.492-4.145-4.98-6.215-7.468c-0.379,0.264-0.758,0.527-1.138,0.791
	c-0.478-2.681-0.956-5.36-1.459-8.183c-1.647-0.188-3.882-0.441-7.262-0.826c2.025-1.086,3.035-1.629,4.173-2.239
	c-1.064-0.203-2.011-0.383-2.941-0.561c0.914-1.195,1.785-2.335,2.741-3.586c-0.894-0.55-1.688-1.038-2.778-1.708
	c0.719-0.185,1.203-0.486,1.527-0.363c2.459,0.927,4.93,1.843,7.313,2.941C67.337,8.498,71.56,6.02,75.78,2.973
	c0.381,5.393,0.729,10.348,1.119,15.875c6.379-4.426,2.961-9.395,2.261-13.928c4.319-2.446,9.435-0.799,9.904,3.176
	c0.693-0.383,1.352-0.745,2.028-1.119c0.252,1.178,0.178,2.477,0.768,3.301c2.221,3.106,3.307,5.928,2.22,10.146
	c-0.734,2.852,1.405,6.443,2.562,10.857C97.38,20.024,98.036,10.012,98.692,0c0.562,0.014,1.125,0.027,1.688,0.04
	c0,5.228,0,10.456,0,15.685c0.281,0.03,0.562,0.062,0.844,0.092c0.615-2.35,1.23-4.701,1.846-7.053
	c0.29,0.398,0.58,0.797,0.869,1.194c2.395-1.545,4.788-3.09,7.731-4.989c0.63,0.774,1.545,2.816,3.076,3.523
	c1.581,0.73,3.762,0.162,6.244,0.162c-2.442,1.033-4.75,1.566-6.511,2.849c-3.501,2.55-7.269,4.897-8.604,9.581
	C102.431,33.161,98.8,45.186,95.243,57.23c0.711,0.238,1.424,0.477,2.135,0.715c1.229-3.219,3.034-6.345,3.562-9.674
	c1.046-6.592,4.1-10.972,10.552-13.236c1.339-0.469,1.911-3.123,3.005-5.071c0.401,0.593,0.718,1.06,1.035,1.528
	c2.225-1.181,4.57-2.426,7.364-3.908c0.219,3.422,7.114,1.94,5.071,7.199c-1.024,2.637-2.583,5.065-4.055,7.883
	c9.27-1.252,7.777-9.71,11.348-15.946c0.017,4.499-0.587,8.406,4.197,9.032c1.649,0.217,3.377-0.269,5.068-0.259
	c1.47,0.009,2.938,0.263,4.141,0.383c-1.653,3.074-3.192,5.222-4.004,7.616c-1.117,3.295-1.378,6.896-2.637,10.119
	c-0.503,1.285-2.599,2.473-4.129,2.723c-2.981,0.486-6.569-0.994-7.248,4.039c-0.142,1.051-2.725,1.771-4.184,2.645
	c0.33,0.732,0.66,1.463,0.99,2.194c7.348-2.606,14.694-5.214,21.883-7.763c0.84,6.232,7.73,3.807,11.836,6.014
	c-0.501,2.506-1.002,5.011-1.502,7.516c-0.908-0.334-2.29-0.844-3.673-1.353c-0.186,1.524-0.372,3.05-0.517,4.235
	c-1.275,0.49-2.521,0.969-3.781,1.453c-1.093-1.575-2.521-3.635-4.277-6.168c-2.121,2.152-4.027,3.594-5.267,5.477
	c-1.339,2.033-2.056,4.477-3.252,7.218c8.851,1.033,17.224,2.011,25.597,2.989c0.009,0.572,0.019,1.145,0.027,1.717
	c-0.592,0.402-1.142,1.062-1.782,1.166c-5.032,0.818-10.104,1.408-15.109,2.36c-1.231,0.235-2.258,1.545-3.378,2.36
	c0.687,0.903,1.201,2.057,2.089,2.666c4.649,3.192,9.311,6.383,14.126,9.312c5.219,3.175,5.641,8.527,6.223,14.039
	c-2.814-3.646-5.628-7.293-8.648-11.207c-1.177,1.391-1.989,2.352-2.107,2.492c-4.067-1.438-7.754-2.74-11.492-4.06
	c-1.868,2.951-3.716,5.871-6.432,10.16c0-5.785,0-10.095,0-14.405c-0.455-0.235-0.909-0.472-1.364-0.706
	c-0.606,1.413-1.212,2.826-1.818,4.24c-0.356-0.328-0.713-0.657-1.068-0.986c0.227-2.174,0.453-4.348,0.833-7.985
	c-2.112,2.737-3.274,4.243-4.905,6.358c-0.159-1.872-0.248-2.926-0.431-5.076c-2.039,2.248-3.528,3.892-5.595,6.17
	c2.06-0.225,3.017-0.33,4.431-0.484c-0.838,1.271-1.498,2.273-1.579,2.396c5.141,9.033,8.308,17.931,7.577,29.152
	c-5.306-5.846-9.956-10.969-14.609-16.096c0.077-0.113-0.494,0.449-0.394,0.625c3.161,5.48-0.203,11.887,1.275,16.584
	c2.22,7.055-2.021,12.455-1.578,18.74c-2.416-7.293-4.832-14.588-7.248-21.881c-0.266,0.033-0.53,0.066-0.796,0.1
	c0,2-0.32,4.064,0.063,5.988c0.904,4.529,3.005,8.988,3.021,13.482c0.02,5.223-1.667,10.453-2.83,16.877
	c-10.644-14.938-13.964-30.793-17.389-47.107"/>
</svg>
