<?xml version="1.0" encoding="utf-8"?>
<!-- Generator: Adobe Illustrator 16.0.0, SVG Export Plug-In . SVG Version: 6.00 Build 0)  -->
<!DOCTYPE svg PUBLIC "-//W3C//DTD SVG 1.1//EN" "http://www.w3.org/Graphics/SVG/1.1/DTD/svg11.dtd">
<svg version="1.1" id="Layer_1" xmlns="http://www.w3.org/2000/svg" xmlns:xlink="http://www.w3.org/1999/xlink" x="0px" y="0px"
	 width="235.223px" height="207.88px" viewBox="0 0 235.223 207.88" enable-background="new 0 0 235.223 207.88"
	 xml:space="preserve">
<path fill-rule="evenodd" clip-rule="evenodd" d="M100.67,175.315c-10.5,3.75-20.338,21.924-20.369,20.17
	c-0.372-21.089,2.444-41.508,13.137-60.222c3.317-5.808,6.295-11.81,9.428-17.724c-0.444-0.245-0.89-0.49-1.335-0.736
	c-0.598,0.979-1.136,2.002-1.802,2.932c-3.62,5.051-7.512,10.04-13.661,11.932c-6.604,2.031-8.41,7.555-10.269,12.91
	c-2.396,6.911-4.295,14.009-6.07,21.11c-0.447,1.789,0.52,3.894,0.605,5.862c0.122,2.811,0.031,5.63-0.534,8.718
	c-2.174-3.197-3.608-7.106-9.923-3.339c0.883-8.85,1.659-16.628,2.371-23.77c-1.816-2.771-3.694-5.637-5.663-8.639
	c0,2.389,0,4.781,0,7.459c-1.376-0.824-2.4-1.436-3.604-2.156c-6.132,8.485-10.101,17.63-8.691,29.206
	c-5.848-5.606-7.026-12.262-8.262-18.912c-0.402-2.166-0.96-4.308-1.524-6.438c-0.664-2.51-1.621-4.827,1.187-6.959
	c3.277-2.489,2.653-3.627,2.099-8.105c-0.282-2.275,2.439-4.922,3.551-6.939c-0.51-0.859-1.338-2.256-2.488-4.197
	c-0.451,0.188-2.14,0.895-3.828,1.6c-0.138-0.227-0.275-0.453-0.413-0.68c3.229-3.08,6.459-6.158,9.472-9.03
	c0.278,0.077-0.361-0.1-0.354-0.098c8.439-5.053,17.29-10.352,26.141-15.651c-0.437-0.683-0.873-1.365-1.31-2.048
	c-4.613,3.489-9.227,6.978-14.709,11.125c3.628-3.72,6.484-6.649,9.342-9.58c-0.338-0.391-0.675-0.781-1.013-1.172
	c-4.556,3.621-9.112,7.242-13.775,10.948c-1.765-8.85,7.634-9.29,10.628-14.427c-0.295-0.362-0.59-0.724-0.886-1.085
	c-4.005,3.237-8.057,6.42-11.995,9.736c-1.906,1.604-3.417,3.729-5.452,5.11c-1.406,0.955-3.402,1.042-5.135,1.517
	c-0.23-0.443-0.461-0.888-0.691-1.332c1.562-2.971,3.125-5.942,5.291-10.062c-3.438,1.943-5.783,3.268-8.802,4.975
	c0.514-2.096,0.865-3.529,1.463-5.961c-7.492,2.959-14.257,5.632-20.886,8.25c3.156-4.33,6.669-9.149,10.182-13.969
	c-0.101-0.154-0.201-0.309-0.302-0.464c-2.62,2.407-5.24,4.814-7.859,7.221c-0.318-0.3-0.637-0.6-0.955-0.899
	c2.592-2.204,5.184-4.407,7.775-6.61c-0.202-0.185-0.404-0.369-0.606-0.553c-3.584,1.659-7.168,3.319-10.752,4.978
	c-0.244-0.334-0.489-0.668-0.733-1.001c0.868-1.317,1.735-2.634,3.425-5.197c-4.294,1.969-7.314,3.355-9.701,4.45
	C1.441,96.238,0.682,95.197,0,94.263c3.671-1.757,8.019-5.685,12.179-5.496c14.843,0.675,29.596-4.501,44.578,0.516
	c11.566,3.873,23.756,5.887,36.435,8.911c-3.918-4.196-7.263-7.78-9.838-10.538c-3.133,0.203-5.882,0.381-9.059,0.587
	c0-0.874-0.561-2.749,0.111-3.911c1.586-2.742,0.93-4.36-1.449-6.087c-6.112-4.438-11.979-9.228-18.215-13.476
	c-2.204-1.501-5.199-1.842-7.904-2.737c1.302-0.345,2.838-0.753,5.725-1.519c-3.119-0.459-4.932-0.725-7.757-1.141
	c2.574-1.29,4.408-2.208,6.241-3.127c-0.066-0.163-0.134-0.327-0.2-0.49c-4.293,0.741-8.587,1.482-12.88,2.223
	c-0.155-0.501-0.311-1.003-0.465-1.504c1.341-1.095,2.682-2.19,4.762-3.889c-5.224,0.397-8.127,6.708-13.396,2.611
	c2.096-1.492,4.288-3.054,6.48-4.615c-0.086-0.191-0.172-0.383-0.258-0.575c-3.189,1.194-6.379,2.389-9.569,3.583
	c2.333-3.109,3.926-5.468-0.403-7.947c14.427-4.469,25.549,2.426,36.501,9.433c4.323,2.766,8.1,6.383,12.154,9.575
	c1.216,0.957,2.533,1.786,4.654,1.809c-1.227-1.777-2.452-3.554-3.855-5.587c1.673,0,3.602,0,5.529,0
	c0.057-0.251,0.114-0.503,0.171-0.754c-3.123-1.437-6.245-2.874-9.368-4.31c0.056-0.185,0.111-0.37,0.167-0.554
	c3.078,0.952,6.157,1.905,9.236,2.857c0.101-0.224,0.2-0.448,0.301-0.672c-1.696-0.943-3.392-1.887-5.979-3.326
	c2.947,0.404,5.005,0.687,7.062,0.969c0.116-0.287,0.232-0.573,0.349-0.859c-2.524-1.348-5.049-2.696-8.445-4.51
	c2.545,0.166,4.276,0.278,6.007,0.39c0.062-0.232,0.123-0.465,0.186-0.697c-2.189-0.862-4.379-1.723-6.568-2.585
	c0.014-0.209,0.028-0.418,0.042-0.628c1.953,0,3.907,0,5.86,0c0.033-0.274,0.066-0.548,0.1-0.822
	c-2.799-0.413-5.597-0.825-8.396-1.238c0.04-0.305,0.08-0.61,0.12-0.916c2.201,0.229,4.403,0.459,6.604,0.689
	c0.032-0.184,0.064-0.369,0.097-0.553c-6.481-1.888-12.964-3.777-19.445-5.665c0.034-0.217,0.069-0.434,0.104-0.651
	c1.61,0,3.221,0,5.941,0c-1.972-1.126-3.044-1.738-4.117-2.351c0.226-0.361,0.45-0.722,0.676-1.083
	c3.861-0.747,7.723-1.494,12.364-2.393c-1.881-2.437-3.255-4.218-4.203-5.446c0.535-2.414,1.081-4.713,1.533-7.031
	c0.111-0.574-0.084-1.208-0.138-1.814c1.021-0.036,2.053-0.186,3.059-0.082c1.67,0.172,3.324,0.507,5.907,0.921
	c-0.031-0.186,0.169,1.017,0.534,3.204c1.047-1.728,1.787-2.95,2.627-4.335c2.363,4.035,4.33,7.395,6.298,10.754
	c0.593-0.337,1.186-0.675,1.778-1.012c-2.162-3.973-4.325-7.945-6.632-12.185c1.18-0.299,2.651-0.671,4.665-1.181
	c-1.906-3.171-3.817-6.35-6.122-10.184c1.844,0.905,3.154,1.548,3.841,1.885c0.664-1.014,1.087-2.385,1.889-2.663
	c0.684-0.237,1.804,0.781,2.765,1.261C91.873,2.447,93.168,1.224,94.463,0c0.193,0.186,0.387,0.372,0.58,0.558
	c-1.633,2.132-3.266,4.265-4.898,6.398c0.287,0.24,0.574,0.48,0.861,0.721c1.009-0.819,2.017-1.638,3.859-3.135
	c-1.216,2.267-1.938,3.612-2.659,4.957c2.587-3.785,6.498-4.65,9.989-5.387c1.548,5.332,3.01,10.368,4.45,15.333
	c0.778-0.513,1.717-1.13,2.589-1.705c1.614,0.599-2.686,5.715,4.106,1.819c-2.142,3.434-3.301,5.293-4.941,7.924
	c2.071-1.564,3.492-2.636,4.913-3.708c0.226,0.197,0.452,0.395,0.679,0.592c-1.512,2.257-3.023,4.515-5.341,7.975
	c1.733-1.095,2.382-1.504,2.97-1.875c0.401,1.26,0.808,2.538,1.214,3.815c0.97-1.07,1.923-2.156,2.914-3.206
	c2.997-3.176,5.55-7.097,9.152-9.281c3.285-1.991,7.715-2.092,11.815-2.16c-3.172,3.071-6.345,6.143-10.276,9.949
	c4.996-1.076,8.747-1.884,11.817-2.544c-4.057,4.345-8.694,8.834-12.731,13.811c-2.62,3.228-4.76,7.008-6.301,10.866
	c-0.601,1.505,1.196,3.868,1.597,5.9c0.366,1.86,0.321,3.801,0.438,5.418c0.184-0.119,1.434-0.933,2.828-1.841
	c0.08,1.667,0.155,3.246,0.211,4.414c6.021-5.628,11.944-11.176,17.881-16.71c3.45-3.216,6.646-6.796,10.456-9.508
	c3.986-2.838,8.483-5.023,12.923-7.146c4.972-2.377,10.071-4.52,15.239-6.428c1.632-0.603,3.664-0.111,5.513-0.139
	c1.987-0.029,3.9-3.52,6.146,0.018c0.292,0.459,3.168-0.723,4.974-1.177c-0.268,0.863-0.454,1.464-0.697,2.249
	c3.937-0.624,7.397-1.105,9.827,3.416c0.939,1.748,4.537,2.067,6.283,2.776c-10.293,0-21.196,0-32.1,0
	c-0.025,0.273-0.051,0.547-0.075,0.82c7.16,0.597,14.321,1.195,21.482,1.792c-0.027,0.279-0.054,0.559-0.081,0.838
	c-6.418,0-12.836,0-20.107,0c1.344,0.581,2.049,0.886,2.839,1.227c-2.936,0.214-5.847,0.426-8.758,0.639
	c-0.037,0.378-0.075,0.757-0.113,1.135c5.703,0.324,11.406,0.647,17.109,0.97c0.004,0.115,0.008,0.229,0.012,0.344
	c-6.683,0.413-13.365,0.827-20.048,1.24c-0.005,0.458-0.01,0.916-0.015,1.374c5.423,0,10.845,0,16.267,0
	c-0.012,0.507-0.023,1.014-0.035,1.521c-5.541,0-11.081,0-16.621,0c-0.011,0.281-0.021,0.561-0.031,0.842
	c4.355,0.467,8.711,0.934,13.627,1.461c-7.553,5.469-15.698-0.075-22.992,3.443c4.918,0,9.835,0,14.752,0
	c0.078,0.407,0.156,0.814,0.234,1.221c-1.777,0.741-3.556,1.483-5.833,2.433c3.655,1.486,6.879,2.796,10.412,4.233
	c-6.121,1.528-11.844,2.957-17.566,4.386c0.151,0.57,0.303,1.141,0.454,1.711c8.416-0.89,16.557-5.664,25.245-2.7
	c-0.816,2.303-1.439,4.062-1.934,5.456c-6.095,2.198-12.668,4.569-19.434,7.01c0.243,0.882,0.532,1.935,0.756,2.749
	c-3.544,0.321-6.964,0.631-10.384,0.941c0.029,0.515,0.059,1.029,0.088,1.543c-0.949-0.764-1.899-1.529-3.022-2.433
	c-0.157,0.633-0.444,1.115-0.343,1.493c0.763,2.839-0.857,3.288-3.146,3.587c-1.43,0.187-2.869,0.923-4.114,1.712
	c-1.437,0.91-2.558,2.324-4.006,3.208c-2.38,1.452-4.913,2.653-7.381,3.96c0.23,0.574,0.461,1.148,0.691,1.722
	c5.965-1.164,11.904-2.5,17.912-3.374c1.53-0.223,3.274,1.024,4.92,1.595c-0.175,0.387-0.35,0.774-0.525,1.162
	c6.75-1.529,13.499-3.06,20.249-4.583c0.631-0.142,1.336-0.464,1.9-0.312c3.171,0.858,6.31,1.836,9.205,2.697
	c-1.617,0.825-4.05,2.066-6.482,3.307c0.076,0.229,0.152,0.459,0.229,0.689c4.097-1.289,8.193-2.577,12.342-3.882
	c-0.29,5.491,1.665,6.876,8.567,6.228c-1.074,3.261,1.318,4.823,7.719,4.798c-0.307,1.211-0.592,2.335-0.844,3.332
	c2.637,0.732,5.357,1.488,8.805,2.446c-1.377,1.64-2.844,3.387-4.6,5.476c0.812,0.266,2.109,1.102,3.35,1.023
	c5.43-0.342,5.525,3.076,6.133,7.145c0.498,3.336,2.572,6.48,4.17,9.594c0.943,1.836,2.32,3.447,3.502,5.16
	c-0.338,0.434-0.674,0.869-1.012,1.305c-2.512-1.456-4.977-2.997-7.545-4.347c-3.609-1.897-5.572-0.487-5.896,4.34
	c-1.932-3.676-3.293-6.53-4.914-9.228c-0.682-1.133-1.916-1.932-2.898-2.882c-0.859,1.107-1.914,2.118-2.516,3.353
	c-0.527,1.08-0.543,2.41-0.766,3.527c-2.041-2.969-3.479-6.238-5.938-8.281c-2.139-1.777-5.431-2.17-8.737-3.363
	c-0.483,2.82-1.102,6.42-1.71,9.969c-2.514-0.66-2.514-0.66-5.479-8.854c-2.111,0.76-4.224,1.52-6.718,2.416
	c-0.009-0.014-0.34-0.531-0.655-1.059c-0.232-0.389-0.445-0.789-0.934-1.66c-0.673,1.046-1.146,1.781-1.932,3.001
	c-0.228-2.603-0.42-4.801-0.595-6.801c-0.516,1.985-1.091,4.194-1.665,6.404c-0.227-0.035-0.453-0.071-0.68-0.106
	c-0.128-1.91-0.257-3.822-0.339-5.036c-2.7,1.458-6.268,2.298-7.916,4.544c-2.185,2.977-2.868,7.055-4.345,11.059
	c-0.584-4.992-1.133-9.686-1.742-14.888c-3.189,2.167-5.312,3.608-7.674,5.214c-2.982-2.924-10.033-2.951-10.508-10.003
	c-0.521,1.44-1.043,2.882-1.777,4.913c5.535,3.16,11.153,6.369,16.986,9.699c-1.324,0.243-2.552,0.468-4.575,0.839
	c2.684,0.804,4.63,1.388,7.48,2.242c-1.365,0.306-1.905,0.427-3.16,0.708c4.405,3.287,8.446,6.303,12.389,9.244
	c-0.498,0.159-1.168,0.373-1.65,0.527c2.123,1.214,4.104,2.346,6.083,3.477c-0.592,0.707-1.185,1.412-1.722,2.053
	c1.964,0.924,3.996,1.879,6.028,2.833c-0.082,0.327-0.164,0.654-0.246,0.981c-1.984-0.179-3.968-0.357-5.952-0.535
	c-0.239,0.287-0.478,0.575-0.717,0.863c3.16,2.581,6.321,5.163,9.481,7.744c-0.326,0.385-0.653,0.771-0.979,1.155
	c-0.989-0.22-1.978-0.439-2.683-0.596c1.354,2.87,2.677,5.67,4.221,8.939c-1.899-0.243-3.161-0.405-3.835-0.491
	c-0.31,2.003-0.614,3.977-0.919,5.949c-0.476,0.023-0.951,0.046-1.428,0.068c1.622,3.219,3.244,6.437,5.101,10.121
	c-1.41-0.212-2.434-0.365-3.828-0.574c0,1.454,0,2.814,0,4.175c-0.349,0.1-0.698,0.198-1.047,0.298
	c-2.36-5.688-4.72-11.376-7.244-17.46c-0.813,2.026-1.491,3.716-2.169,5.405c-0.438,0.17-0.877,0.34-1.315,0.511
	c-1.945-4.524-3.89-9.048-5.478-12.74c-0.244,0.358-1.3,1.906-2.653,3.891c0-1.76,0.022-3.073-0.007-4.386
	c-0.028-1.266-0.111-2.531-0.752-3.858c-0.56,2.714-1.118,5.427-1.764,8.563c-1.21-1.102-2.163-1.969-3.116-2.837
	c-0.461,0.286-0.923,0.572-1.384,0.858c0.23-2.062,0.49-4.12,0.682-6.186c0.195-2.118,0.322-4.242-0.43-6.545
	c-0.625,2.126-1.25,4.252-1.875,6.378c-0.112-0.005-0.224-0.01-0.336-0.015c0.333-3.869,0.667-7.737,1-11.606
	c-0.553-0.093-1.105-0.187-1.658-0.28c-0.868,4.145-1.737,8.289-2.592,12.368c-1.967-0.954-3.599-1.745-5.387-2.612
	c-2.158,8.118,1.854,14.103,3.779,20.611c0.817,2.763,0.723,6.973-0.879,9.03c-3.407,4.378-1.135,8.478-0.997,12.694
	c0.067,2.069,0.407,4.129,0.761,7.501c-8.968-6.786-8.791-16.291-11.563-22.916c-1.693-1.05-2.911-1.424-3.5-2.248
	c-1.347-1.883-0.646-5.376-4.179-5.481c-1.334-0.039-2.686,0.546-4.034,0.847c-0.546-3.674-1.074-4.056-7.533-5.435
	c0.974-2.264,1.938-4.508,2.903-6.753c3.191,1.377,3.191,1.377,3.193-5.077c-4.842,1.615-7.836,0.533-9.416,5.748"/>
</svg>
