<?xml version="1.0" encoding="iso-8859-1"?>
<!-- Generator: Adobe Illustrator 19.0.0, SVG Export Plug-In . SVG Version: 6.00 Build 0)  -->
<svg version="1.1" id="Capa_1" xmlns="http://www.w3.org/2000/svg" xmlns:xlink="http://www.w3.org/1999/xlink" x="0px" y="0px"
	 viewBox="0 0 512 512" style="enable-background:new 0 0 512 512;" xml:space="preserve">
<path style="fill:#6ECD24;" d="M503.09,136.19c-5.728-5.728-13.152-9.19-21.213-9.19h-54.943l54.943-54.45
	c11.667-11.667,11.667-30.759,0-42.426s-30.759-11.667-42.426,0L385,85.066V30.124c0-8.061-3.462-15.485-9.19-21.213
	C370.082,3.182,362.658,0,354.597,0c-14.8,0.001-27.215,10.867-29.674,25H325v162h162.424c13.926-2.631,24.574-14.946,24.576-29.597
	C512,149.342,508.818,141.918,503.09,136.19z"/>
<path style="fill:#66BD21;" d="M487.424,187c13.926-2.631,24.574-14.946,24.576-29.597c0-8.061-3.182-15.485-8.91-21.213
	S489.937,127,481.876,127h-54.943l54.943-54.45c11.667-11.667,11.667-30.759,0-42.426L325,187H487.424z"/>
<path style="fill:#FEA832;" d="M333.384,284.682l20.576,41.789c-0.212,0.212-0.212,0.212-0.423,0.423l-102.46,66.399l-23.759-2.545
	l-2.121,19.092l-144.89,93.978C59.943,516.971,32.365,514,15.182,496.818c-17.183-17.183-20.153-44.761-7.001-65.125l60.462-93.553
	l31.395,10.182l-14.637-35.85l66.61-103.096l32.88,11.667l-16.122-37.335l16.336-25.244
	c36.061-56.003,109.035-72.549,165.674-37.972c8.484,5.092,15.91,11.244,22.698,18.032s12.94,14.214,18.032,22.698
	c29.062,47.73,21.637,106.489-14.638,145.735L333.384,284.682z"/>
<path style="fill:#FE9923;" d="M333.384,284.682l20.576,41.789c-0.212,0.212-0.212,0.212-0.423,0.423l-102.46,66.399l-23.759-2.545
	l-2.121,19.092l-144.89,93.978C59.943,516.971,32.365,514,15.182,496.818l358.295-358.295c6.788,6.788,12.94,14.214,18.032,22.698
	c29.062,47.73,21.637,106.489-14.638,145.735L333.384,284.682z"/>
<path style="fill:#FCBF29;" d="M376.815,306.9l-64.644-64.644c-5.863-5.863-15.351-5.863-21.213,0
	c-5.863,5.863-5.863,15.351,0,21.213l63.088,63.088C362.716,320.898,370.094,314.134,376.815,306.9z"/>
<path style="fill:#FEDB41;" d="M227.318,263.469c5.863-5.863,5.863-15.351,0-21.213l-58.578-58.578l-16.666,25.76l54.031,54.031
	C211.967,269.332,221.455,269.332,227.318,263.469z"/>
<path style="fill:#FCBF29;" d="M184.891,348.322c-5.863,5.863-5.863,15.351,0,21.213l40.392,40.392l25.759-16.667l-44.938-44.938
	C200.242,342.46,190.754,342.46,184.891,348.322z"/>
<path style="fill:#FEDB41;" d="M121.252,369.535c5.863-5.863,5.863-15.351,0-21.213l-35.846-35.846l-16.666,25.76l31.299,31.299
	C105.901,375.398,115.389,375.398,121.252,369.535z"/>
<g>
</g>
<g>
</g>
<g>
</g>
<g>
</g>
<g>
</g>
<g>
</g>
<g>
</g>
<g>
</g>
<g>
</g>
<g>
</g>
<g>
</g>
<g>
</g>
<g>
</g>
<g>
</g>
<g>
</g>
</svg>
