<?xml version="1.0" encoding="utf-8"?>
<!-- Generator: Adobe Illustrator 16.0.0, SVG Export Plug-In . SVG Version: 6.00 Build 0)  -->
<!DOCTYPE svg PUBLIC "-//W3C//DTD SVG 1.1 Tiny//EN" "http://www.w3.org/Graphics/SVG/1.1/DTD/svg11-tiny.dtd">
<svg version="1.1" baseProfile="tiny" id="Layer_1" xmlns="http://www.w3.org/2000/svg" xmlns:xlink="http://www.w3.org/1999/xlink"
	 x="0px" y="0px" fill="#000000" width="261px" height="420.9px" viewBox="0 0 261 420.9" xml:space="preserve">
<path d="M260.6,298.2c-0.3-15.5-1.6-31.2-4.7-46.3c-2.1-10.5-5-20.8-6.3-31.6c-0.5-3.9-2.6-7.5-3.9-11.3c0.3-0.1,0.6-0.2,0.9-0.3
	c0.8,1.6,1.7,3.1,2.5,4.7c-0.6-11.5-1.5-22.9-4.2-33.7c-3.5-13.8-8.3-27.3-13.2-40.7c-1.9-5.1-5.7-8.9-11.7-10.4
	c-18-4.5-35.3-12.1-54.4-11.5c-2.4,0.1-5.5-2.9-7.1-5.2c-3.1-4.8-5.4-10.2-8.4-16c-3,1.2-5.5,2.2-8,3c-5.5,1.8-11,3.7-16.6,5.3
	c-1.3,0.4-3.8,0-4.2-0.8c-0.9-1.8-0.9-4.1-1.2-6.2c-0.2-1.4-0.1-2.9-0.4-4.3c-1.4-5.3-3-10.5-4.4-15.7c0,0,0,0,0,0
	c6.3-5.3,11.8-11.3,16.6-18.1c2.3-3.3,3.9-7,5.7-10.5c3.3-6.6,0.4-12.1-4.6-15.8c-5.4-4-11.6-6-18.1-6.7c-4.9-0.5-7.5-2.2-8.2-7.3
	c-0.4-3.1-1.9-6.1-2.9-9.2c-2-6-6.8-7.9-12.4-8.7C78.2-0.7,65-0.2,52,2.1C47.2,3,42.2,4.2,39.6,8.7c-1.7,2.9-2.3,6.4-3.1,9.7
	c-1.6,6.3-3,12.6-4.7,18.9c-0.2,0.9-1.2,1.8-2.1,2.3C21,44.2,12.6,49.1,6.5,57.2c-4.3,5.6-7,11.9-6.4,19c0.6,7.5,5.1,12.7,10.8,17.2
	c7.4,5.8,16.3,7.3,25.2,8.3c2.3,0.3,4.6,0.5,6.8,0.6l0,0c0,0-0.5,4.9-0.8,7.4c-0.7,5.8,0.2,6.7,6.1,6.7c0.8,0,1.6,0,2.5,0
	c-0.2,2.4-0.4,4.5-0.5,5.4c2.9,1.3,5.3,1.8,6.5,3.1c4.5,5.1,8.7,10.5,12.2,14.9c-9.4,6-19.1,12.1-29.3,18.6c1.8,2.1,3,3.5,4.2,5.1
	c4,5,8.8,9.8,4.5,17c-0.6,1-0.2,2.4-0.3,3.8l-1.5,9.2c0,0,0,0,0,0c-0.6-1.1-1-2.3-1.6-3.4c-0.5-1-1.1-1.9-1.7-2.7
	c-0.8-1.1-1.6-2.1-2.4-3.1c-1.4-1.8-2.8-3.6-4.2-5.5c-0.4-0.5-0.7-0.9-1.1-1.3c-1.2-1.3-2.8-0.9-3.5,0.7c-1,2.8,0,5.1,1.5,7.4
	c1,1.5,1.9,3,2.8,4.6c0.5,0.8,0.2,1.1-0.8,1.2c-0.5,0-1,0-1.6,0c0.3-1,0.3-2.1-0.5-2.8c-0.3-0.3-0.9-0.4-1.2-0.3
	c-1.2,0.4-2.4,1.4-3.6,1.3c-1.1,0-2.1-1.2-3.3-1.6c-1.7-0.6-2.7-2.1-4.1-3.1c-2.1-1.5-4.2-3.1-6.3-4.6c-0.2-0.1-0.3-0.3-0.4-0.4
	c0.2-0.6,0.9-1.2,0-1.8c-0.6-0.4-1-0.5-1.5,0.1c-0.7-0.5-1.4-0.9-2.2-1.3c-0.8-0.5-1.7-0.6-2.6-0.2c-0.9,0.3-1.1,0.8-0.7,1.6
	c0.6,1.3,1.4,2.5,2,3.8c0.1,0.2,0.1,0.6,0,0.7c-1.6,2.1-3.2,4.2-4.8,6.3c-0.8,1.1-1.4,2.3-2.2,3.4c0.4,0.2,0.8,0.4,1.2,0.7
	c2.3-2.8,4.6-5.7,7-8.7c1,1.6,2.1,3.1,2.5,4.9c0.4,1.7,1.6,2.8,2.4,4.2c0.5,0.9,1.3,1.7,1.9,2.7c0.6,1,0.9,2.2,1.4,3.2
	c0.2,0.6,0.3,1.3,0.7,1.9c0.5,0.7,0.6,1.4,0.4,2.2c-0.2,1.3,0.1,2.4,1.1,3.3c0.4,0.3,0.6,1,0.6,1.6c0,2.1,0.7,3.3,2.5,4.1
	c1.4,0.6,2.9,1.2,4.4,1.8c1.4,0.6,2.9,1.2,4.4,1.9c0.1-0.2,5.7,2.9,8.1,4c-0.7,2.3-1.4,4.4-1.9,6.5c-1.9,8.1-6.2,15.9-3.5,24.7
	c1.4,4.6,3.6,9.2,3.9,13.8c1.1,14.2,8.3,24.7,19,33.1c2.9,2.3,3.6,4.5,2.9,8c-7.3,37.9-8.3,76.2-7,114.8c66.9,0,134.7,0,202.6,0
	c1.2-4.9,3.3-9.6,3.3-14.3C260.9,370.5,261.2,334.4,260.6,298.2z"/>
</svg>
